<?xml version="1.0" encoding="UTF-8"?>
<svg version="1.1" xmlns="http://www.w3.org/2000/svg" width="500" height="500">
<path d="M0 0 C165 0 330 0 500 0 C500 165 500 330 500 500 C335 500 170 500 0 500 C0 335 0 170 0 0 Z " fill="#101321" transform="translate(0,0)"/>
<path d="M0 0 C2.82925751 0.15753473 5.65881443 0.2431458 8.49108601 0.32654381 C14.33904178 0.50122207 20.18643855 0.72752048 26.0269165 1.07086182 C27.04405228 1.12720795 28.06118805 1.18355408 29.10914612 1.24160767 C32.14687892 1.81082513 33.61012304 2.54672742 35.7756958 4.74127197 C36.16833891 7.7005209 36.31300984 10.28272324 36.27178955 13.24127197 C36.27324478 14.07336182 36.27470001 14.90545166 36.27619934 15.76275635 C36.27454003 17.52125552 36.26297503 19.27976917 36.24224854 21.03814697 C36.21330102 23.73148209 36.22163637 26.42284837 36.23468018 29.11627197 C36.2284425 30.82461488 36.22005132 32.53295157 36.20928955 34.24127197 C36.21222519 35.04758057 36.21516083 35.85388916 36.21818542 36.68463135 C36.1246342 42.22268588 36.1246342 42.22268588 34.6217041 44.45631409 C31.98283126 46.29316415 30.03350775 46.10162957 26.83551025 46.08184814 C25.61447098 46.08162155 24.3934317 46.08139496 23.13539124 46.0811615 C21.15716621 46.05793571 21.15716621 46.05793571 19.13897705 46.03424072 C17.77563442 46.0286444 16.41228576 46.02437447 15.04893494 46.02137756 C11.46325988 46.00993147 7.87795026 45.98046683 4.29241943 45.94726562 C0.6325983 45.91655937 -3.02728197 45.90287107 -6.68719482 45.88775635 C-13.86639776 45.85559646 -21.04529974 45.8044035 -28.2243042 45.74127197 C-28.20859375 47.05845215 -28.1928833 48.37563232 -28.17669678 49.73272705 C-28.12245034 54.61352437 -28.0879733 59.49429497 -28.05950928 64.37530518 C-28.0444106 66.48895751 -28.02392994 68.60257846 -27.99798584 70.71612549 C-27.96165023 73.75193013 -27.94458876 76.78732104 -27.93133545 79.82330322 C-27.91585159 80.77026566 -27.90036774 81.71722809 -27.88441467 82.69288635 C-27.88418808 83.57357285 -27.88396149 84.45425934 -27.88372803 85.3616333 C-27.87706619 86.13662674 -27.87040436 86.91162018 -27.86354065 87.71009827 C-28.33171592 90.34602224 -29.04937767 91.20054012 -31.2243042 92.74127197 C-33.34918213 93.12895203 -33.34918213 93.12895203 -35.83172607 93.14532471 C-36.76279175 93.15800888 -37.69385742 93.17069305 -38.65313721 93.1837616 C-40.15789612 93.17935814 -40.15789612 93.17935814 -41.6930542 93.17486572 C-42.72490845 93.18010757 -43.7567627 93.18534943 -44.81988525 93.19075012 C-47.00204569 93.19717516 -49.18424074 93.19582713 -51.36639404 93.18731689 C-54.71158254 93.17880435 -58.05506565 93.207567 -61.40008545 93.23931885 C-63.51857452 93.2409308 -65.63706662 93.24035344 -67.7555542 93.23736572 C-68.75872681 93.2485997 -69.76189941 93.25983368 -70.79547119 93.27140808 C-71.72653687 93.26202713 -72.65760254 93.25264618 -73.61688232 93.24298096 C-74.84574158 93.2427317 -74.84574158 93.2427317 -76.09942627 93.24247742 C-78.2243042 92.74127197 -78.2243042 92.74127197 -79.99098206 91.07106018 C-81.52477516 88.17367193 -81.58622782 86.23622656 -81.56488037 82.96295166 C-81.56465378 81.80205017 -81.56442719 80.64114868 -81.56419373 79.44506836 C-81.54870987 78.1970343 -81.53322601 76.94900024 -81.51727295 75.66314697 C-81.51302811 74.38143616 -81.50878326 73.09972534 -81.50440979 71.7791748 C-81.49298068 68.37927562 -81.46353086 64.97976374 -81.43029785 61.58001709 C-81.39955483 58.10778034 -81.38589546 54.63548073 -81.37078857 51.16314697 C-81.33865878 44.35569668 -81.28748623 37.54850294 -81.2243042 30.74127197 C-79.4520874 29.72442627 -77.67987061 28.70758057 -75.90765381 27.69073486 C-74.33417679 26.78776169 -74.33417679 26.78776169 -72.72891235 25.86654663 C-70.60769809 24.64968733 -68.48570446 23.43418626 -66.36322021 22.21954346 C-65.36991699 21.6479248 -64.37661377 21.07630615 -63.35321045 20.48736572 C-62.76183289 20.15888138 -62.17045532 19.83039703 -61.56115723 19.49195862 C-57.47282828 17.18158551 -53.67213136 14.64949107 -49.871521 11.88873291 C-33.27405669 0.26115363 -19.4772074 -1.20385749 0 0 Z " fill="#FE5B00" transform="translate(273.22430419921875,232.25872802734375)"/>
<path d="M0 0 C1.09631241 -0.00540298 2.19262482 -0.01080597 3.32215881 -0.01637268 C6.95007226 -0.02889131 10.57719701 -0.01234719 14.20507812 0.00561523 C16.72326703 0.00546032 19.24145617 0.00397261 21.75964355 0.00120544 C27.03890627 -0.00017996 32.31796412 0.01197023 37.59716797 0.03515625 C43.69800577 0.06176563 49.79846325 0.06351287 55.8993392 0.05176789 C61.77161146 0.04098318 67.64374491 0.04728356 73.51600647 0.06132317 C76.01351013 0.0658448 78.51102497 0.06616828 81.00852966 0.06225777 C84.49680644 0.05935285 87.98445835 0.07581907 91.47265625 0.09765625 C92.50862442 0.0931546 93.54459259 0.08865295 94.61195374 0.08401489 C96.03772987 0.09887184 96.03772987 0.09887184 97.49230957 0.11402893 C98.72893719 0.11767377 98.72893719 0.11767377 99.99054718 0.12139225 C102.83024271 0.60228676 104.19618828 1.48273868 106.23632812 3.50170898 C106.64106715 6.53037873 106.79719994 9.19063379 106.76757812 12.22045898 C106.77331848 13.50188782 106.77331848 13.50188782 106.7791748 14.8092041 C106.78189588 16.61475808 106.77452097 18.42035136 106.7578125 20.22583008 C106.73640436 22.99185954 106.75760616 25.75529169 106.78320312 28.52124023 C106.78055988 30.27515223 106.77543497 32.0290626 106.76757812 33.78295898 C106.77567505 34.61114136 106.78377197 35.43932373 106.79211426 36.29260254 C106.69850688 42.01581118 106.69850688 42.01581118 104.59954834 44.2224884 C101.53524671 45.88120717 99.38706927 45.86283541 95.90722656 45.84228516 C94.62620056 45.84205856 93.34517456 45.84183197 92.02532959 45.84159851 C90.6321172 45.82627973 89.23890839 45.81063176 87.84570312 45.79467773 C86.41652878 45.78907995 84.98734867 45.78481071 83.5581665 45.78181458 C79.80318203 45.77038 76.04854766 45.74092519 72.29370117 45.70770264 C68.45952083 45.67697159 64.62528372 45.66330278 60.79101562 45.64819336 C53.27262714 45.61605378 45.75452676 45.56487469 38.23632812 45.50170898 C38.23632812 48.14170898 38.23632812 50.78170898 38.23632812 53.50170898 C34.55475791 52.12044469 31.23408362 50.45362395 27.83398438 48.48217773 C26.78839355 47.87921875 25.74280273 47.27625977 24.66552734 46.6550293 C22.38553732 45.32373998 20.10973657 43.98714062 17.83837891 42.64135742 C16.66281486 41.94702881 15.48686804 41.25334787 14.31054688 40.56030273 C13.42873749 40.04054367 13.42873749 40.04054367 12.52911377 39.51028442 C8.64278926 37.24696058 4.69314039 35.22394025 0.63085938 33.28686523 C-13.59483369 26.27022188 -13.59483369 26.27022188 -15.75585938 21.15161133 C-17.00115499 14.91196188 -16.96381149 7.84493463 -13.38619995 2.40856934 C-9.2224205 -0.61894675 -5.02008858 -0.04684899 0 0 Z " fill="#FD5B00" transform="translate(206.763671875,172.498291015625)"/>
<path d="M0 0 C3.5211051 1.40844204 6.33763125 2.67609554 9.52734375 4.58203125 C10.82248901 5.35196411 10.82248901 5.35196411 12.14379883 6.13745117 C13.06572021 6.69021729 13.9876416 7.2429834 14.9375 7.8125 C16.91921682 8.99227823 18.90098924 10.17196308 20.8828125 11.3515625 C21.89633789 11.95645508 22.90986328 12.56134766 23.95410156 13.18457031 C28.7322241 16.03244777 33.52245917 18.85973117 38.3125 21.6875 C39.21556885 22.22117188 40.1186377 22.75484375 41.04907227 23.3046875 C49.35893314 28.2152308 57.67778811 33.11042458 66 38 C66 35.36 66 32.72 66 30 C66.33 30 66.66 30 67 30 C67.05607422 30.92232422 67.05607422 30.92232422 67.11328125 31.86328125 C67.17902344 32.67152344 67.24476563 33.47976562 67.3125 34.3125 C67.37050781 35.11300781 67.42851562 35.91351563 67.48828125 36.73828125 C68.08206694 39.36272334 68.95780294 40.30820672 71 42 C70.01 42.66 69.02 43.32 68 44 C86.81 44.33 105.62 44.66 125 45 C125 45.33 125 45.66 125 46 C123.92696121 45.95669807 123.92696121 45.95669807 122.83224487 45.91252136 C115.98238703 45.64850194 109.1333175 45.45238829 102.27963066 45.32644176 C98.75805051 45.25949325 95.24077833 45.16929034 91.72167969 45.01928711 C73.14751359 44.24917806 59.72518076 46.07270146 44.30419922 57.35256958 C40.97172239 59.73518635 37.46071276 61.73486218 33.89453125 63.7421875 C32.69345098 64.44063087 31.49354671 65.14110111 30.29492188 65.84375 C28.53434373 66.87110378 26.77337344 67.89776416 25.01147461 68.92285156 C17.93710561 73.04058273 10.949254 77.24342871 4.1159668 81.75439453 C2 83 2 83 0 83 C0 55.61 0 28.22 0 0 Z " fill="#2C2B27" transform="translate(179,188)"/>
<path d="M0 0 C1.29326468 3.87979405 1.71910592 7.97300686 1 12 C-1.09357175 14.73327423 -2.7056004 16.43909351 -5.875 17.8125 C-6.57625 17.874375 -7.2775 17.93625 -8 18 C-9.7015625 18.2165625 -9.7015625 18.2165625 -11.4375 18.4375 C-15 18 -15 18 -17.875 15.4375 C-20.26268829 12.15736429 -20.75747593 9.04206787 -21 5 C-7.1372549 -0.44607843 -7.1372549 -0.44607843 0 0 Z " fill="#E95502" transform="translate(403,203)"/>
<path d="M0 0 C9.60124224 0.8136646 9.60124224 0.8136646 13 4 C13.51690269 7.6183188 13.78806166 9.88954948 11.625 12.9375 C10 14 10 14 8 14 C8.495 15.0828125 8.495 15.0828125 9 16.1875 C10.00603529 19.01697427 10.16977402 21.02895466 10 24 C9.01 23.67 8.02 23.34 7 23 C6.08960875 20.71302681 5.54158001 18.41684635 4.94140625 16.03125 C4.1927947 13.79174659 4.1927947 13.79174659 1.90234375 13.21875 C1.27457031 13.1465625 0.64679688 13.074375 0 13 C-0.33 15.31 -0.66 17.62 -1 20 C-1.99 20.33 -2.98 20.66 -4 21 C-3.39700836 13.76410027 -1.8849413 7.00629124 0 0 Z " fill="#EA5502" transform="translate(281,94)"/>
<path d="M0 0 C0.66 0 1.32 0 2 0 C1.55838748 2.9808845 0.87979989 4.1414119 -1.125 6.5 C-2.053125 7.7375 -2.053125 7.7375 -3 9 C-2.67 10.32 -2.34 11.64 -2 13 C2.455 12.505 2.455 12.505 7 12 C6 15 6 15 4.35766602 15.9831543 C3.66342529 16.26070557 2.96918457 16.53825684 2.25390625 16.82421875 C1.12178711 17.28344727 1.12178711 17.28344727 -0.03320312 17.75195312 C-1.22333008 18.21504883 -1.22333008 18.21504883 -2.4375 18.6875 C-3.22705078 19.00783203 -4.01660156 19.32816406 -4.83007812 19.65820312 C-10.6870669 22 -10.6870669 22 -13 22 C-15.99356446 17.01072589 -16.56764563 13.67645633 -16 8 C-13 6 -13 6 -9.125 6.25 C-6.52826604 6.34546816 -5.44343493 6.37691969 -3.4375 4.671875 C-2.24362269 3.15110272 -1.11754707 1.57771351 0 0 Z " fill="#E95502" transform="translate(119,295)"/>
<path d="M0 0 C0.99 0.33 1.98 0.66 3 1 C3 6.94 3 12.88 3 19 C4.8871875 16.525 4.8871875 16.525 6.8125 14 C8.95703125 11.1875 8.95703125 11.1875 11 9 C11.99 9 12.98 9 14 9 C12.46906512 13.67199091 9.89242605 17.02170005 6.875 20.8125 C6.17310547 21.7087207 6.17310547 21.7087207 5.45703125 22.62304688 C4.30994435 24.08616792 3.15568766 25.54366297 2 27 C1.01 26.67 0.02 26.34 -1 26 C-1 20.06 -1 14.12 -1 8 C-2.258125 9.65 -3.51625 11.3 -4.8125 13 C-6.95703125 15.8125 -6.95703125 15.8125 -9 18 C-9.99 18 -10.98 18 -12 18 C-10.55956804 13.67870413 -8.37514503 10.76883035 -5.4375 7.3125 C-2.40830054 3.86183949 -2.40830054 3.86183949 0 0 Z " fill="#EC5502" transform="translate(340,119)"/>
<path d="M0 0 C4.71722223 0.84084944 6.86128677 3.77795204 9.8125 7.3125 C10.32748047 7.89451172 10.84246094 8.47652344 11.37304688 9.07617188 C12.83203125 10.80078125 12.83203125 10.80078125 15 14 C14.63549805 16.19995117 14.63549805 16.19995117 14 18 C13.05640625 17.70996094 13.05640625 17.70996094 12.09375 17.4140625 C6.75783615 15.7907875 1.42240732 14.30539435 -4 13 C-1.03 16.63 1.94 20.26 5 24 C4.67 24.66 4.34 25.32 4 26 C-0.33776139 24.44572016 -2.62350894 21.10268248 -5.3125 17.5625 C-5.77978516 16.97662109 -6.24707031 16.39074219 -6.72851562 15.78710938 C-8.05078125 14.06640625 -8.05078125 14.06640625 -10 11 C-9.67 10.01 -9.34 9.02 -9 8 C-2.98922864 9.63040815 3.01663928 11.27147357 9 13 C8.3503125 12.22914063 7.700625 11.45828125 7.03125 10.6640625 C6.1959375 9.66117188 5.360625 8.65828125 4.5 7.625 C3.6646875 6.62726563 2.829375 5.62953125 1.96875 4.6015625 C0 2 0 2 0 0 Z " fill="#EB5502" transform="translate(154,122)"/>
<path d="M0 0 C7.42838085 -0.09647248 14.61072969 0.2322836 22 1 C22 5.62 22 10.24 22 15 C21.01 15 20.02 15 19 15 C19.33 11.37 19.66 7.74 20 4 C17.69 4 15.38 4 13 4 C13 6.97 13 9.94 13 13 C12.01 13 11.02 13 10 13 C10 9.7 10 6.4 10 3 C7.69 3 5.38 3 3 3 C2.67 6.63 2.34 10.26 2 14 C1.34 14 0.68 14 0 14 C0 9.38 0 4.76 0 0 Z " fill="#D44E05" transform="translate(387,254)"/>
<path d="M0 0 C0.75 3.25 0.75 3.25 1 7 C-1.17053499 9.94572605 -2.52182823 10.84060941 -6 12 C-9.5 12.3125 -9.5 12.3125 -13 12 C-15 10.3125 -15 10.3125 -16 8 C-15.72258397 6.32311919 -15.39479105 4.6531875 -15 3 C-12.87562952 2.49733206 -10.75048274 1.9979439 -8.625 1.5 C-7.44164062 1.2215625 -6.25828125 0.943125 -5.0390625 0.65625 C-2 0 -2 0 0 0 Z " fill="#171520" transform="translate(401,206)"/>
<path d="M0 0 C6.93 0 13.86 0 21 0 C20 4 20 4 18.50952148 5.28027344 C17.57474976 5.81442871 17.57474976 5.81442871 16.62109375 6.359375 C15.94755859 6.75253906 15.27402344 7.14570313 14.58007812 7.55078125 C13.51950195 8.14439453 13.51950195 8.14439453 12.4375 8.75 C11.72658203 9.16121094 11.01566406 9.57242188 10.28320312 9.99609375 C8.52865912 11.00878358 6.76514839 12.00590921 5 13 C10.28 13.33 15.56 13.66 21 14 C21 14.66 21 15.32 21 16 C13.74 16 6.48 16 -1 16 C0.09737276 11.61050896 0.86692864 11.06216322 4.5625 8.8046875 C5.160625 8.45664063 5.75875 8.10859375 6.375 7.75 C6.96539062 7.38648438 7.55578125 7.02296875 8.1640625 6.6484375 C10.98527245 4.95825316 12.65629056 4 16 4 C16 3.34 16 2.68 16 2 C10.72 2 5.44 2 0 2 C0 1.34 0 0.68 0 0 Z " fill="#FB5A00" transform="translate(92,238)"/>
<path d="M0 0 C2.4375 1.875 2.4375 1.875 4 4 C4 4.66 4 5.32 4 6 C3.01 6 2.02 6 1 6 C0.54625 5.484375 0.0925 4.96875 -0.375 4.4375 C-0.91125 3.963125 -1.4475 3.48875 -2 3 C-4.65466049 3.23043864 -4.65466049 3.23043864 -7 4 C-7 5.32 -7 6.64 -7 8 C-6.38511719 8.18175781 -5.77023438 8.36351563 -5.13671875 8.55078125 C-4.32847656 8.80214844 -3.52023438 9.05351563 -2.6875 9.3125 C-1.48673828 9.67794922 -1.48673828 9.67794922 -0.26171875 10.05078125 C2.14918593 11.06261171 3.42698016 11.91971969 5 14 C4.875 17.0625 4.875 17.0625 4 20 C0.30628421 22.46247719 -2.71289397 22.56931388 -7 22 C-9.5 20.6875 -9.5 20.6875 -11 19 C-11 18.01 -11 17.02 -11 16 C-10.01 16 -9.02 16 -8 16 C-7.34 16.99 -6.68 17.98 -6 19 C-2.535 18.505 -2.535 18.505 1 18 C0.84436087 16.02944158 0.84436087 16.02944158 0 14 C-2.01631716 12.93349219 -2.01631716 12.93349219 -4.4375 12.375 C-8.82119205 11.17880795 -8.82119205 11.17880795 -11 9 C-11.375 6.0625 -11.375 6.0625 -11 3 C-7.94006533 -0.67192161 -4.53695608 -0.56711951 0 0 Z " fill="#E25203" transform="translate(241,91)"/>
<path d="M0 0 C1.093125 0.33 2.18625 0.66 3.3125 1 C3.9725 2.32 4.6325 3.64 5.3125 5 C2.0125 4.67 -1.2875 4.34 -4.6875 4 C-5.0175 5.32 -5.3475 6.64 -5.6875 8 C-3.52983778 10.15766222 0.82471365 9.94909182 3.74609375 10.40234375 C6.3125 11 6.3125 11 8.3125 13 C8.73401163 16.30184112 8.94098726 18.18023401 6.875 20.875 C3.06105449 22.5494151 -0.58329485 22.23678107 -4.6875 22 C-5.3475 20.68 -6.0075 19.36 -6.6875 18 C-3.3875 18.33 -0.0875 18.66 3.3125 19 C3.6425 17.35 3.9725 15.7 4.3125 14 C3.72082031 13.97421875 3.12914062 13.9484375 2.51953125 13.921875 C-2.7595013 13.54295586 -5.79386661 12.89363339 -9.6875 9 C-9.4056109 5.61733079 -8.85685563 4.18927982 -6.5625 1.625 C-3.6875 0 -3.6875 0 0 0 Z " fill="#DD5104" transform="translate(209.6875,96)"/>
<path d="M0 0 C2.60057161 2.26501399 2.94731161 3.57849291 3.375 7 C2.94601772 10.43185823 2.36682377 11.52764905 0 14 C-2.70703125 15.046875 -2.70703125 15.046875 -5.8125 15.75 C-6.82957031 15.99234375 -7.84664062 16.2346875 -8.89453125 16.484375 C-11.99187483 16.99865091 -14.86670708 17.09367094 -18 17 C-18 16.01 -18 15.02 -18 14 C-16.28490234 13.69255859 -16.28490234 13.69255859 -14.53515625 13.37890625 C-13.04423324 13.1069769 -11.55334984 12.83483026 -10.0625 12.5625 C-9.30775391 12.42779297 -8.55300781 12.29308594 -7.77539062 12.15429688 C-4.08046826 11.75727966 -4.08046826 11.75727966 -1 10 C-0.83333333 7 -0.83333333 7 -1 4 C-1.33 3.67 -1.66 3.34 -2 3 C-8.02362127 3.20609591 -14.0833513 3.84954053 -20 5 C-19.67 3.68 -19.34 2.36 -19 1 C-5.5885457 -1.66467319 -5.5885457 -1.66467319 0 0 Z " fill="#E65403" transform="translate(113,270)"/>
<path d="M0 0 C0.99 0.33 1.98 0.66 3 1 C2.55527344 1.95261719 2.11054688 2.90523438 1.65234375 3.88671875 C1.08002422 5.15332754 0.50844859 6.42027264 -0.0625 7.6875 C-0.35705078 8.31333984 -0.65160156 8.93917969 -0.95507812 9.58398438 C-2.68010253 13.46021568 -3.36305016 15.92642725 -2 20 C-0.02 20 1.96 20 4 20 C6.64 15.05 9.28 10.1 12 5 C12.66 5.33 13.32 5.66 14 6 C13.39686658 9.73942719 12.32946122 12.74706776 10.625 16.125 C10.20476562 16.97320312 9.78453125 17.82140625 9.3515625 18.6953125 C8.06797444 20.88408983 6.96895296 22.41164362 5 24 C1.246337 24.57120959 -0.50992328 24.28315544 -3.8125 22.375 C-6.54146171 19.41212729 -6.82051816 18.00527906 -7 14 C-5.95956079 11.35212473 -4.92627909 9.08545267 -3.5625 6.625 C-3.22412109 5.98433594 -2.88574219 5.34367187 -2.53710938 4.68359375 C-1.70581674 3.11467525 -0.85484897 1.55620884 0 0 Z " fill="#ED5602" transform="translate(311,103)"/>
<path d="M0 0 C0.66 0.66 1.32 1.32 2 2 C-4.75 6 -4.75 6 -7 6 C-6.34 8.31 -5.68 10.62 -5 13 C-2.03 11.68 0.94 10.36 4 9 C4 9.99 4 10.98 4 12 C2.02 12.99 0.04 13.98 -2 15 C-1.34 16.98 -0.68 18.96 0 21 C3.3 19.68 6.6 18.36 10 17 C10.33 17.99 10.66 18.98 11 20 C9.39967863 20.84069415 7.79458829 21.67231505 6.1875 22.5 C5.29417969 22.9640625 4.40085938 23.428125 3.48046875 23.90625 C1 25 1 25 -2 25 C-3.53723734 22.23796468 -5.05184161 19.46414848 -6.5625 16.6875 C-7.21895508 15.50897461 -7.21895508 15.50897461 -7.88867188 14.30664062 C-8.29794922 13.54931641 -8.70722656 12.79199219 -9.12890625 12.01171875 C-9.51119385 11.31522217 -9.89348145 10.61872559 -10.28735352 9.90112305 C-11 8 -11 8 -10 5 C-7.71484375 3.61328125 -7.71484375 3.61328125 -4.9375 2.3125 C-4.01839844 1.87550781 -3.09929687 1.43851562 -2.15234375 0.98828125 C-1.08693359 0.49908203 -1.08693359 0.49908203 0 0 Z " fill="#EA5502" transform="translate(183,105)"/>
<path d="M0 0 C0.99 0.33 1.98 0.66 3 1 C2.649375 1.721875 2.29875 2.44375 1.9375 3.1875 C0.89590983 6.3122705 1.10903428 7.88161996 2 11 C3.65 11.33 5.3 11.66 7 12 C7.33 10.02 7.66 8.04 8 6 C8.99 5.67 9.98 5.34 11 5 C10.34 7.97 9.68 10.94 9 14 C10.134375 14.268125 11.26875 14.53625 12.4375 14.8125 C14.2009375 15.4003125 14.2009375 15.4003125 16 16 C16.33 16.99 16.66 17.98 17 19 C9.98291678 18.51043605 3.26855593 16.14336283 -3 13 C-4.23593891 9.29218328 -3.5678132 8.32489747 -2.0625 4.8125 C-1.68222656 3.91144531 -1.30195312 3.01039063 -0.91015625 2.08203125 C-0.60980469 1.39496094 -0.30945313 0.70789063 0 0 Z " fill="#E75403" transform="translate(103,188)"/>
<path d="M0 0 C1.484375 1.77734375 1.484375 1.77734375 2.75 3.9375 C3.17796875 4.64777344 3.6059375 5.35804688 4.046875 6.08984375 C5 8 5 8 5 10 C1.2047869 8.50902342 -0.61042731 6.24299151 -3 3 C-4.65 3.66 -6.3 4.32 -8 5 C-7.34 6.11375 -6.68 7.2275 -6 8.375 C-4 11.75 -4 11.75 -4 14 C-7.16115776 12.63016497 -7.9927092 12.0109362 -10 9 C-10.7425 9.309375 -11.485 9.61875 -12.25 9.9375 C-14.50692176 10.8094925 -16.6450153 11.47667007 -19 12 C-19 11.01 -19 10.02 -19 9 C-16.84905569 6.9130243 -14.25323167 5.38797414 -11.75 3.75 C-10.72712891 3.04230469 -10.72712891 3.04230469 -9.68359375 2.3203125 C-9.01972656 1.87945312 -8.35585938 1.43859375 -7.671875 0.984375 C-7.0644043 0.57928711 -6.45693359 0.17419922 -5.83105469 -0.24316406 C-3.47317832 -1.21775296 -2.34359647 -0.92460285 0 0 Z " fill="#E85403" transform="translate(382,159)"/>
<path d="M0 0 C0.66 0 1.32 0 2 0 C1.67 0.763125 1.34 1.52625 1 2.3125 C-0.17436686 4.99069135 -0.17436686 4.99069135 0 8 C2.13025735 9.85812283 4.2239097 11.52893524 6.5 13.1875 C7.12003906 13.65091797 7.74007812 14.11433594 8.37890625 14.59179688 C9.91292881 15.7364137 11.45566943 16.86932941 13 18 C12.67 18.99 12.34 19.98 12 21 C8.28939292 18.88060821 5.00116082 16.5076108 1.6875 13.8125 C0.80449219 13.09707031 -0.07851562 12.38164062 -0.98828125 11.64453125 C-1.65214844 11.10183594 -2.31601563 10.55914062 -3 10 C-4.98 11.32 -6.96 12.64 -9 14 C-9 9.85326976 -7.24222063 8.47050281 -4.625 5.3125 C-3.81289062 4.31863281 -3.00078125 3.32476562 -2.1640625 2.30078125 C-1.44992188 1.54152344 -0.73578125 0.78226563 0 0 Z " fill="#E75403" transform="translate(131,144)"/>
<path d="M0 0 C0.99 0 1.98 0 3 0 C1.84941444 5.39795989 0.57578241 10.70987333 -1 16 C-1.66 16 -2.32 16 -3 16 C-2.67 13.69 -2.34 11.38 -2 9 C-3.13179688 8.72285156 -4.26359375 8.44570313 -5.4296875 8.16015625 C-6.91148902 7.79439512 -8.39325818 7.42850289 -9.875 7.0625 C-10.62136719 6.88009766 -11.36773437 6.69769531 -12.13671875 6.50976562 C-17.7734375 5.11328125 -17.7734375 5.11328125 -20 4 C-20 3.01 -20 2.02 -20 1 C-17.39546825 1.64438933 -14.7913709 2.2904504 -12.1875 2.9375 C-11.44951172 3.11990234 -10.71152344 3.30230469 -9.95117188 3.49023438 C-6.92939016 4.2422615 -3.95543282 5.01485573 -1 6 C-0.67 4.02 -0.34 2.04 0 0 Z " fill="#E55303" transform="translate(403,284)"/>
<path d="M0 0 C1.010625 0.0825 2.02125 0.165 3.0625 0.25 C5.0625 3.25 5.0625 3.25 5.0625 7.25 C2.70811267 8.67944945 1.58217567 9.33661261 -1.1875 8.875 C-1.765 8.66875 -2.3425 8.4625 -2.9375 8.25 C-3.31813221 5.9239143 -3.65019945 3.58944736 -3.9375 1.25 C-2.9375 0.25 -2.9375 0.25 0 0 Z " fill="#1B1620" transform="translate(108.9375,303.75)"/>
<path d="M0 0 C0 0.66 0 1.32 0 2 C-2.74356126 3.36878548 -5.49355105 4.72013177 -8.25 6.0625 C-9.02730469 6.45244141 -9.80460937 6.84238281 -10.60546875 7.24414062 C-11.35957031 7.60830078 -12.11367188 7.97246094 -12.890625 8.34765625 C-13.92751465 8.85824585 -13.92751465 8.85824585 -14.98535156 9.37915039 C-17.37757053 10.11635505 -18.66570847 9.80784795 -21 9 C-18.22232142 5.59103084 -14.39776595 4.05410881 -10.5 2.25 C-9.48486328 1.75693359 -9.48486328 1.75693359 -8.44921875 1.25390625 C-3.36634083 -1.12211361 -3.36634083 -1.12211361 0 0 Z " fill="#E05204" transform="translate(396,184)"/>
<path d="M0 0 C4.45706534 1.34313363 8.28622704 3.10597207 12.3125 5.4375 C13.36050781 6.03433594 14.40851563 6.63117188 15.48828125 7.24609375 C18 9 18 9 19 12 C13.9738891 11.46323088 10.37760591 9.05581499 6.1875 6.4375 C5.49462891 6.01275391 4.80175781 5.58800781 4.08789062 5.15039062 C2.38783049 4.10690544 0.69334524 3.05434704 -1 2 C-0.67 1.34 -0.34 0.68 0 0 Z " fill="#E85403" transform="translate(112,171)"/>
<path d="M0 0 C6.875 0.875 6.875 0.875 8 2 C8.125 4.5 8.125 4.5 8 7 C7 8 7 8 5.15234375 8.09765625 C3.1015625 8.06510417 1.05078125 8.03255208 -1 8 C-0.67 5.36 -0.34 2.72 0 0 Z " fill="#151421" transform="translate(283,97)"/>
<path d="M0 0 C0 0.99 0 1.98 0 3 C-7.01805857 4.10087193 -13.90565767 4.09733092 -21 4 C-21 3.34 -21 2.68 -21 2 C-13.94546999 0.79556805 -7.16562789 -0.28100502 0 0 Z " fill="#F15701" transform="translate(409,235)"/>
<path d="M0 0 C6.46153846 0.46153846 6.46153846 0.46153846 9 3 C9.56410256 9.20512821 9.56410256 9.20512821 7.625 11.9375 C6 13 6 13 4 13 C4 12.34 4 11.68 4 11 C2.68 10.67 1.36 10.34 0 10 C1.65 9.67 3.3 9.34 5 9 C5 7.35 5 5.7 5 4 C2.69 3.34 0.38 2.68 -2 2 C-1.34 1.34 -0.68 0.68 0 0 Z " fill="#D95005" transform="translate(285,95)"/>
<path d="M0 0 C3.3125 1 3.3125 1 4.51953125 3.0625 C4.78121094 3.701875 5.04289063 4.34125 5.3125 5 C4.28189453 4.85691406 4.28189453 4.85691406 3.23046875 4.7109375 C2.32941406 4.60007812 1.42835938 4.48921875 0.5 4.375 C-0.83998047 4.20097656 -0.83998047 4.20097656 -2.20703125 4.0234375 C-4.94440391 3.76499257 -4.94440391 3.76499257 -7.6875 6 C-8.3475 6.99 -9.0075 7.98 -9.6875 9 C-9.4056109 5.61733079 -8.85685563 4.18927982 -6.5625 1.625 C-3.6875 0 -3.6875 0 0 0 Z " fill="#D04D06" transform="translate(209.6875,96)"/>
<path d="M0 0 C2.31 0 4.62 0 7 0 C7 4.29 7 8.58 7 13 C6.01 13 5.02 13 4 13 C4.33 9.37 4.66 5.74 5 2 C3.35 2 1.7 2 0 2 C0 1.34 0 0.68 0 0 Z " fill="#E95502" transform="translate(402,256)"/>
<path d="M0 0 C0.33 0.639375 0.66 1.27875 1 1.9375 C4.02329832 5.0552764 6.73656724 4.72043064 11 5 C10.67 5.66 10.34 6.32 10 7 C8.54207116 7.05399736 7.08357288 7.09279177 5.625 7.125 C4.81289062 7.14820312 4.00078125 7.17140625 3.1640625 7.1953125 C1 7 1 7 -1 5 C-0.625 2.375 -0.625 2.375 0 0 Z " fill="#F85900" transform="translate(202,101)"/>
<path d="M0 0 C0.33 0 0.66 0 1 0 C1.226875 0.94875 1.45375 1.8975 1.6875 2.875 C2.69083714 6.19323388 2.69083714 6.19323388 5.625 7.375 C6.800625 7.684375 6.800625 7.684375 8 8 C8 8.66 8 9.32 8 10 C2.6 9.4 2.6 9.4 0.125 7.75 C-1.39056296 5.39245761 -1.28918735 3.74727982 -1 1 C-0.67 0.67 -0.34 0.34 0 0 Z " fill="#F35801" transform="translate(306,117)"/>
<path d="M0 0 C0.66 0.66 1.32 1.32 2 2 C0.38405168 4.04119788 -1.2856382 6.04072937 -3 8 C-3.66 8 -4.32 8 -5 8 C-5 7.34 -5 6.68 -5 6 C-5.99 5.67 -6.98 5.34 -8 5 C-7.236875 4.731875 -6.47375 4.46375 -5.6875 4.1875 C-3.12619116 3.05575888 -1.80307062 2.08776599 0 0 Z " fill="#DA5004" transform="translate(319,119)"/>
<path d="M0 0 C0.33 0 0.66 0 1 0 C1.22275681 3.26709987 1.32663401 5.39572708 -0.25 8.3125 C-2.17986311 10.17343943 -3.37565253 10.63802104 -6 11 C-5.71125 10.443125 -5.4225 9.88625 -5.125 9.3125 C-3.94777265 6.97953039 -3.94777265 6.97953039 -3 4.375 C-2 2 -2 2 0 0 Z " fill="#D84F05" transform="translate(115,274)"/>
<path d="M0 0 C0.66 0.33 1.32 0.66 2 1 C1 4 1 4 -0.84765625 5.16796875 C-1.57855469 5.50441406 -2.30945313 5.84085938 -3.0625 6.1875 C-3.79597656 6.53167969 -4.52945313 6.87585938 -5.28515625 7.23046875 C-6.13400391 7.61138672 -6.13400391 7.61138672 -7 8 C-6.01347016 4.68167234 -5.31268497 3.23451373 -2.5 1.125 C-1.675 0.75375 -0.85 0.3825 0 0 Z " fill="#E85402" transform="translate(105,242)"/>
<path d="M0 0 C0.99 0.33 1.98 0.66 3 1 C2.67 1.721875 2.34 2.44375 2 3.1875 C0.99396471 6.01697427 0.83022598 8.02895466 1 11 C-0.32 10.67 -1.64 10.34 -3 10 C-2.01 6.7 -1.02 3.4 0 0 Z " fill="#D95005" transform="translate(103,188)"/>
<path d="M0 0 C0 0.33 0 0.66 0 1 C1.65 1.33 3.3 1.66 5 2 C5 2.33 5 2.66 5 3 C0.71 3 -3.58 3 -8 3 C-8 2.34 -8 1.68 -8 1 C-5.07175348 0.02391783 -3.04386724 -0.08226668 0 0 Z " fill="#E45303" transform="translate(396,236)"/>
<path d="M0 0 C0.99 0.33 1.98 0.66 3 1 C3 1.66 3 2.32 3 3 C-0.465 4.485 -0.465 4.485 -4 6 C-4.33 5.34 -4.66 4.68 -5 4 C-3.36587557 2.29159719 -2.13093906 1.06546953 0 0 Z " fill="#D95005" transform="translate(393,183)"/>
<path d="M0 0 C4.95 0.99 4.95 0.99 10 2 C10 2.66 10 3.32 10 4 C7.36 4 4.72 4 2 4 C1.34 2.68 0.68 1.36 0 0 Z " fill="#EF5602" transform="translate(203,114)"/>
<path d="M0 0 C0.66 0.33 1.32 0.66 2 1 C1.8125 2.875 1.8125 2.875 1 5 C-1.5625 6.25 -1.5625 6.25 -4 7 C-4 6.34 -4 5.68 -4 5 C-4.66 4.67 -5.32 4.34 -6 4 C-4.7934375 3.566875 -4.7934375 3.566875 -3.5625 3.125 C-0.8673532 2.26737432 -0.8673532 2.26737432 0 0 Z " fill="#DB5004" transform="translate(401,213)"/>
<path d="M0 0 C0.66 0.33 1.32 0.66 2 1 C2 1.66 2 2.32 2 3 C-1.465 4.485 -1.465 4.485 -5 6 C-5.33 5.01 -5.66 4.02 -6 3 C-4.03533587 1.93224776 -2.03144641 0.93446535 0 0 Z " fill="#D04D06" transform="translate(192,122)"/>
<path d="M0 0 C0.66 0.66 1.32 1.32 2 2 C0.15794162 4.54379491 -1.72478134 6.83312509 -4 9 C-3.38461538 3.46153846 -3.38461538 3.46153846 -1.4375 1.125 C-0.963125 0.75375 -0.48875 0.3825 0 0 Z " fill="#D04D06" transform="translate(308,112)"/>
<path d="M0 0 C0.66 0.33 1.32 0.66 2 1 C1.34 3.31 0.68 5.62 0 8 C-0.66 8 -1.32 8 -2 8 C-1.125 1.125 -1.125 1.125 0 0 Z " fill="#E55403" transform="translate(279,107)"/>
<path d="M0 0 C-3 2 -3 2 -5.5625 3.4375 C-8.23823502 4.9227919 -8.23823502 4.9227919 -10 8 C-9.64505955 5.37344067 -9.27538036 3.42031739 -7.8125 1.1875 C-5.20638339 -0.51995571 -3.0400645 -0.20267097 0 0 Z " fill="#E45303" transform="translate(210,97)"/>
<path d="M0 0 C1.70884005 1.62339805 3.37446717 3.29319053 5 5 C5 5.66 5 6.32 5 7 C3.35 6.67 1.7 6.34 0 6 C-0.38218767 4.34385343 -0.71395102 2.67542976 -1 1 C-0.67 0.67 -0.34 0.34 0 0 Z " fill="#F25801" transform="translate(231,95)"/>
<path d="M0 0 C0.66 0.33 1.32 0.66 2 1 C2 1.66 2 2.32 2 3 C0.1875 4.0625 0.1875 4.0625 -2 5 C-2.99 4.67 -3.98 4.34 -5 4 C-3.35 2.68 -1.7 1.36 0 0 Z " fill="#F35801" transform="translate(387,186)"/>
</svg>
